<mxfile host="app.diagrams.net" modified="2021-03-31T07:30:55.179Z" agent="5.0 (X11)" etag="VrbjH_zqRHGSqwpRGzpW" compressed="false" version="14.5.3" type="github">
  <diagram id="kJUz9xl3Q0pm3ynxzOqv" name="第 1 页">
    <mxGraphModel dx="1357" dy="778" grid="1" gridSize="10" guides="1" tooltips="1" connect="1" arrows="1" fold="1" page="1" pageScale="1" pageWidth="827" pageHeight="1169" math="0" shadow="0">
      <root>
        <mxCell id="0" />
        <mxCell id="1" parent="0" />
        <mxCell id="_YNgwhS-9LeHyXYjv5Vt-4" value="" style="shape=image;verticalLabelPosition=bottom;labelBackgroundColor=#ffffff;verticalAlign=top;aspect=fixed;imageAspect=0;image=data:image/png,iVBORw0KGgoAAAANSUhEUgAABDcAAANuCAIAAACNCXUxAAAAA3NCSVQICAjb4U/gAAAgAElEQVR4Xu3d7Y7Yd3EFYO+u105i5z0kIQ2JoEWUgvqJVpUqrqq30Rvo9VRtP7WqhCpeBGkhSUuCAzaxHcf2rruBLy1EaHDW4xmfB0VIpT/vzDznL9AhcTj4u7//hwv+QYAAAQIECBAgQIAAgTECh2M2sQgBAgQIECBAgAABAgQ+E9BSfAcECBAgQIAAAQIECMwS0FJm5WEbAgQIECBAgAABAgS0FN8AAQIECBAgQIAAAQKzBLSUWXnYhgABAgQIECBAgAABLcU3QIAAAQIECBAgQIDALAEtZVYetiFAgAABAgQIECBAQEvxDRAgQIAAAQIECBAgMEtAS5mVh20IECBAgAABAgQIENBSfAMECBAgQIAAAQIECMwS0FJm5WEbAgQIECBAgAABAgS0FN8AAQIECBAgQIAAAQKzBLSUWXnYhgABAgQIECBAgAABLcU3QIAAAQIECBAgQIDALAEtZVYetiFAgAABAgQIECBAQEvxDRAgQIAAAQIECBAgMEtAS5mVh20IECBAgAABAgQIENBSfAMECBAgQIAAAQIECMwS0FJm5WEbAgQIECBAgAABAgS0FN8AAQIECBAgQIAAAQKzBLSUWXnYhgABAgQIECBAgAABLcU3QIAAAQIECBAgQIDALAEtZVYetiFAgAABAgQIECBAQEvxDRAgQIAAAQIECBAgMEtAS5mVh20IECBAgAABAgQIENBSfAMECBAgQIAAAQIECMwS0FJm5WEbAgQIECBAgAABAgS0FN8AAQIECBAgQIAAAQKzBLSUWXnYhgABAgQIECBAgAABLcU3QIAAAQIECBAgQIDALAEtZVYetiFAgAABAgQIECBAQEvxDRAgQIAAAQIECBAgMEtAS5mVh20IECBAgAABAgQIENBSfAMECBAgQIAAAQIECMwS0FJm5WEbAgQIECBAgAABAgS0FN8AAQIECBAgQIAAAQKzBLSUWXnYhgABAgQIECBAgAABLcU3QIAAAQIECBAgQIDALAEtZVYetiFAgAABAgQIECBAQEvxDRAgQIAAAQIECBAgMEtAS5mVh20IECBAgAABAgQIENBSfAMECBAgQIAAAQIECMwS0FJm5WEbAgQIECBAgAABAgS0FN8AAQIECBAgQIAAAQKzBLSUWXnYhgABAgQIECBAgAABLcU3QIAAAQIECBAgQIDALAEtZVYetiFAgAABAgQIECBAQEvxDRAgQIAAAQIECBAgMEtAS5mVh20IECBAgAABAgQIENBSfAMECBAgQIAAAQIECMwS0FJm5WEbAgQIECBAgAABAgS0FN8AAQIECBAgQIAAAQKzBLSUWXnYhgABAgQIECBAgAABLcU3QIAAAQIECBAgQIDALAEtZVYetiFAgAABAgQIECBAQEvxDRAgQIAAAQIECBAgMEtAS5mVh20IECBAgAABAgQIENBSfAMECBAgQIAAAQIECMwS0FJm5WEbAgQIECBAgAABAgS0FN8AAQIECBAgQIAAAQKzBLSUWXnYhgABAgQIECBAgAABLcU3QIAAAQIECBAgQIDALAEtZVYetiFAgAABAgQIECBAQEvxDRAgQIAAAQIECBAgMEtAS5mVh20IECBAgAABAgQIENBSfAMECBAgQIAAAQIECMwS0FJm5WEbAgQIECBAgAABAgS0FN8AAQIECBAgQIAAAQKzBLSUWXnYhgABAgQIECBAgAABLcU3QIAAAQIECBAgQIDALAEtZVYetiFAgAABAgQIECBAQEvxDRAgQIAAAQIECBAgMEtAS5mVh20IECBAgAABAgQIENBSfAMECBAgQIAAAQIECMwS0FJm5WEbAgQIECBAgAABAgS0FN8AAQIECBAgQIAAAQKzBLSUWXnYhgABAgQIECBAgAABLcU3QIAAAQIECBAgQIDALAEtZVYetiFAgAABAgQIECBAQEvxDRAgQIAAAQIECBAgMEtAS5mVh20IECBAgAABAgQIENBSfAMECBAgQIAAAQIECMwS0FJm5WEbAgQIECBAgAABAgS0FN8AAQIECBAgQIAAAQKzBLSUWXnYhgABAgQIECBAgAABLcU3QIAAAQIECBAgQIDALAEtZVYetiFAgAABAgQIECBAQEvxDRAgQIAAAQIECBAgMEtAS5mVh20IECBAgAABAgQIENBSfAMECBAgQIAAAQIECMwS0FJm5WEbAgQIECBAgAABAgS0FN8AAQIECBAgQIAAAQKzBLSUWXnYhgABAgQIECBAgAABLcU3QIAAAQIECBAgQIDALAEtZVYetiFAgAABAgQIECBAQEvxDRAgQIAAAQIECBAgMEtAS5mVh20IECBAgAABAgQIELiIgMAfEDg6PDg6OLhw4ewP/yBAgAABAgS6BU4vPDg5OX3QPdY8Ao9fQEt5/BmM3eDg4ODq5eMrxxdPT0/HLmkxAgQIECDwpAocHhycHBxcu/mJnvKkRuyuPyCgpfwBnPT/18XDw0uHBzdv3bxx83a6hfsJECBAgEC7wNOXjl9+8cWDz/6KBn82pV3fwMctoKU87gRmzz85Pf307r1P7t6dvabtCBAgQIDAkyhwoJ08ibG6qSbgd8/XnLwiQIAAAQIECBAgQKBLQEvpkjaHAAECBAgQIECAAIGagJZSc/KKAAECBAgQIECAAIEuAS2lS9ocAgQIECBAgAABAgRqAlpKzckrAgQIECBAgAABAgS6BLSULmlzCBAgQIAAAQIECBCoCWgpNSevCBAgQIAAAQIECBDoEtBSuqTNIUCAAAECBAgQIECgJqCl1Jy8IkCAAAECBAgQIECgS0BL6ZI2hwABAgQIECBAgACBmoCWUnPyigABAgQIECBAgACBLgEtpUvaHAIECBAgQIAAAQIEagJaSs3JKwIECBAgQIAAAQIEugS0lC5pcwgQIECAAAECBAgQqAloKTUnrwgQIECAAAECBAgQ6BLQUrqkzSFAgAABAgQIECBAoCagpdScvCJAgAABAgQIECBAoEtAS+mSNocAAQIECBAgQIAAgZqAllJz8ooAAQIECBAgQIAAgS4BLaVL2hwCBAgQIECAAAECBGoCWkrNySsCBAgQIECAAAECBLoEtJQuaXMIECBAgAABAgQIEKgJaCk1J68IECBAgAABAgQIEOgS0FK6pM0hQIAAAQIECBAgQKAmoKXUnLwiQIAAAQIECBAgQKBLQEvpkjaHAAECBAgQIECAAIGagJZSc/KKAAECBAgQIECAAIEuAS2lS9ocAgQIECBAgAABAgRqAlpKzckrAgQIECBAgAABAgS6BLSULmlzCBAgQIAAAQIECBCoCWgpNSevCBAgQIAAAQIECBDoEtBSuqTNIUCAAAECBAgQIECgJqCl1Jy8IkCAAAECBAgQIECgS0BL6ZI2hwABAgQIECBAgACBmoCWUnPyigABAgQIECBAgACBLgEtpUvaHAIECBAgQIAAAQIEagJaSs3JKwIECBAgQIAAAQIEugS0lC5pcwgQIECAAAECBAgQqAloKTUnrwgQIECAAAECBAgQ6BLQUrqkzSFAgAABAgQIECBAoCagpdScvCJAgAABAgQIECBAoEtAS+mSNocAAQIECBAgQIAAgZqAllJz8ooAAQIECBAgQIAAgS4BLaVL2hwCBAgQIECAAAECBGoCWkrNySsCBAgQIECAAAECBLoEtJQuaXMIECBAgAABAgQIEKgJaCk1J68IECBAgAABAgQIEOgS0FK6pM0hQIAAAQIECBAgQKAmoKXUnLwiQIAAAQIECBAgQKBLQEvpkjaHAAECBAgQIECAAIGagJZSc/KKAAECBAgQIECAAIEuAS2lS9ocAgQIECBAgAABAgRqAlpKzckrAgQIECBAgAABAgS6BLSULmlzCBAgQIAAAQIECBCoCWgpNSevCBAgQIAAAQIECBDoEtBSuqTNIUCAAAECBAgQIECgJqCl1Jy8IkCAAAECBAgQIECgS0BL6ZI2hwABAgQIECBAgACBmoCWUnPyigABAgQIECBAgACBLgEtpUvaHAIECBAgQIAAAQIEagJaSs3JKwIECBAgQIAAAQIEugS0lC5pcwgQIECAAAECBAgQqAloKTUnrwgQIECAAAECBAgQ6BLQUrqkzSFAgAABAgQIECBAoCagpdScvCJAgAABAgQIECBAoEtAS+mSNocAAQIECBAgQIAAgZqAllJz8ooAAQIECBAgQIAAgS4BLaVL2hwCBAgQIECAAAECBGoCWkrNySsCBAgQIECAAAECBLoEtJQuaXMIECBAgAABAgQIEKgJaCk1J68IECBAgAABAgQIEOgS0FK6pM0hQIAAAQIECBAgQKAmoKXUnLwiQIAAAQIECBAgQKBLQEvpkjaHAAECBAgQIECAAIGagJZSc/KKAAECBAgQIECAAIEuAS2lS9ocAgQIECBAgAABAgRqAlpKzckrAgQIECBAgAABAgS6BLSULmlzCBAgQIAAAQIECBCoCWgpNSevCBAgQIAAAQIECBDoEtBSuqTNIUCAAAECBAgQIECgJqCl1Jy8IkCAAAECBAgQIECgS0BL6ZI2hwABAgQIECBAgACBmoCWUnPyigABAgQIECBAgACBLgEtpUvaHAIECBAgQIAAAQIEagJaSs3JKwIECBAgQIAAAQIEugS0lC5pcwgQIECAAAECBAgQqAloKTUnrwgQIECAAAECBAgQ6BLQUrqkzSFAgAABAgQIECBAoCagpdScvCJAgAABAgQIECBAoEtAS+mSNocAAQIECBAgQIAAgZqAllJz8ooAAQIECBAgQIAAgS4BLaVL2hwCBAgQIECAAAECBGoCWkrNySsCBAgQIECAAAECBLoEtJQuaXMIECBAgAABAgQIEKgJaCk1J68IECBAgAABAgQIEOgS0FK6pM0hQIAAAQIECBAgQKAmoKXUnLwiQIAAAQIECBAgQKBLQEvpkjaHAAECBAgQIECAAIGagJZSc/KKAAECBAgQIECAAIEuAS2lS9ocAgQIECBAgAABAgRqAlpKzckrAgQIECBAgAABAgS6BLSULmlzCBAgQIAAAQIECBCoCWgpNSevCBAgQIAAAQIECBDoEtBSuqTNIUCAAAECBAgQIECgJqCl1Jy8IkCAAAECBAgQIECgS0BL6ZI2hwABAgQIECBAgACBmoCWUnPyigABAgQIECBAgACBLgEtpUvaHAIECBAgQIAAAQIEagJaSs3JKwIECBAgQIAAAQIEugS0lC5pcwgQIECAAAECBAgQqAloKTUnrwgQIECAAAECBAgQ6BLQUrqkzSFAgAABAgQIECBAoCagpdScvCJAgAABAgQIECBAoEtAS+mSNocAAQIECBAgQIAAgZqAllJz8ooAAQIECBAgQIAAgS4BLaVL2hwCBAgQIECAAAECBGoCWkrNySsCBAgQIECAAAECBLoEtJQuaXMIECBAgAABAgQIEKgJaCk1J68IECBAgAABAgQIEOgS0FK6pM0hQIAAAQIECBAgQKAmoKXUnLwiQIAAAQIECBAgQKBLQEvpkjaHAAECBAgQIECAAIGagJZSc/KKAAECBAgQIECAAIEuAS2lS9ocAgQIECBAgAABAgRqAlpKzckrAgQIECBAgAABAgS6BLSULmlzCBAgQIAAAQIECBCoCWgpNSevCBAgQIAAAQIECBDoEtBSuqTNIUCAAAECBAgQIECgJqCl1Jy8IkCAAAECBAgQIECgS0BL6ZI2hwABAgQIECBAgACBmoCWUnPyigABAgQIECBAgACBLgEtpUvaHAIECBAgQIAAAQIEagJaSs3JKwIECBAgQIAAAQIEugS0lC5pcwgQIECAAAECBAgQqAloKTUnrwgQIECAAAECBAgQ6BLQUrqkzSFAgAABAgQIECBAoCagpdScvCJAgAABAgQIECBAoEtAS+mSNocAAQIECBAgQIAAgZqAllJz8ooAAQIECBAgQIAAgS4BLaVL2hwCBAgQIECAAAECBGoCWkrNySsCBAgQIECAAAECBLoEtJQuaXMIECBAgAABAgQIEKgJaCk1J68IECBAgAABAgQIEOgS0FK6pM0hQIAAAQIECBAgQKAmoKXUnLwiQIAAAQIECBAgQKBLQEvpkjaHAAECBAgQIECAAIGagJZSc/KKAAECBAgQIECAAIEuAS2lS9ocAgQIECBAgAABAgRqAlpKzckrAgQIECBAgAABAgS6BLSULmlzCBAgQIAAAQIECBCoCWgpNSevCBAgQIAAAQIECBDoEtBSuqTNIUCAAAECBAgQIECgJqCl1Jy8IkCAAAECBAgQIECgS0BL6ZI2hwABAgQIECBAgACBmoCWUnPyigABAgQIECBAgACBLgEtpUvaHAIECBAgQIAAAQIEagJaSs3JKwIECBAgQIAAAQIEugS0lC5pcwgQIECAAAECBAgQqAloKTUnrwgQIECAAAECBAgQ6BLQUrqkzSFAgAABAgQIECBAoCagpdScvCJAgAABAgQIECBAoEtAS+mSNocAAQIECBAgQIAAgZqAllJz8ooAAQIECBAgQIAAgS4BLaVL2hwCBAgQIECAAAECBGoCWkrNySsCBAgQIECAAAECBLoEtJQuaXMIECBAgAABAgQIEKgJaCk1J68IECBAgAABAgQIEOgS0FK6pM0hQIAAAQIECBAgQKAmoKXUnLwiQIAAAQIECBAgQKBLQEvpkjaHAAECBAgQIECAAIGagJZSc/KKAAECBAgQIECAAIEuAS2lS9ocAgQIECBAgAABAgRqAlpKzckrAgQIECBAgAABAgS6BLSULmlzCBAgQIAAAQIECBCoCWgpNSevCBAgQIAAAQIECBDoEtBSuqTNIUCAAAECBAgQIECgJqCl1Jy8IkCAAAECBAgQIECgS0BL6ZI2hwABAgQIECBAgACBmoCWUnPyigABAgQIECBAgACBLgEtpUvaHAIECBAgQIAAAQIEagJaSs3JKwIECBAgQIAAAQIEugS0lC5pcwgQIECAAAECBAgQqAloKTUnrwgQIECAAAECBAgQ6BLQUrqkzSFAgAABAgQIECBAoCagpdScvCJAgAABAgQIECBAoEtAS+mSNocAAQIECBAgQIAAgZqAllJz8ooAAQIECBAgQIAAgS4BLaVL2hwCBAgQIECAAAECBGoCWkrNySsCBAgQIECAAAECBLoEtJQuaXMIECBAgAABAgQIEKgJaCk1J68IECBAgAABAgQIEOgS0FK6pM0hQIAAAQIECBAgQKAmoKXUnLwiQIAAAQIECBAgQKBLQEvpkjaHAAECBAgQIECAAIGagJZSc/KKAAECBAgQIECAAIEuAS2lS9ocAgQIECBAgAABAgRqAlpKzckrAgQIECBAgAABAgS6BLSULmlzCBAgQIAAAQIECBCoCWgpNSevCBAgQIAAAQIECBDoEtBSuqTNIUCAAAECBAgQIECgJqCl1Jy8IkCAAAECBAgQIECgS0BL6ZI2hwABAgQIECBAgACBmoCWUnPyigABAgQIECBAgACBLgEtpUvaHAIECBAgQIAAAQIEagJaSs3JKwIECBAgQIAAAQIEugS0lC5pcwgQIECAAAECBAgQqAloKTUnrwgQIECAAAECBAgQ6BLQUrqkzSFAgAABAgQIECBAoCagpdScvCJAgAABAgQIECBAoEtAS+mSNocAAQIECBAgQIAAgZqAllJz8ooAAQIECBAgQIAAgS4BLaVL2hwCBAgQIECAAAECBGoCWkrNySsCBAgQIECAAAECBLoEtJQuaXMIECBAgAABAgQIEKgJaCk1J68IECBAgAABAgQIEOgS0FK6pM0hQIAAAQIECBAgQKAmoKXUnLwiQIAAAQIECBAgQKBLQEvpkjaHAAECBAgQIECAAIGagJZSc/KKAAECBAgQIECAAIEuAS2lS9ocAgQIECBAgAABAgRqAlpKzckrAgQIECBAgAABAgS6BLSULmlzCBAgQIAAAQIECBCoCWgpNSevCBAgQIAAAQIECBDoEtBSuqTNIUCAAAECBAgQIECgJqCl1Jy8IkCAAAECBAgQIECgS0BL6ZI2hwABAgQIECBAgACBmoCWUnPyigABAgQIECBAgACBLgEtpUvaHAIECBAgQIAAAQIEagJaSs3JKwIECBAgQIAAAQIEugS0lC5pcwgQIECAAAECBAgQqAloKTUnrwgQIECAAAECBAgQ6BLQUrqkzSFAgAABAgQIECBAoCagpdScvCJAgAABAgQIECBAoEtAS+mSNocAAQIECBAgQIAAgZqAllJz8ooAAQIECBAgQIAAgS4BLaVL2hwCBAgQIECAAAECBGoCWkrNySsCBAgQIECAAAECBLoEtJQuaXMIECBAgAABAgQIEKgJaCk1J68IECBAgAABAgQIEOgS0FK6pM0hQIAAAQIECBAgQKAmoKXUnLwiQIAAAQIECBAgQKBLQEvpkjaHAAECBAgQIECAAIGagJZSc/KKAAECBAgQIECAAIEuAS2lS9ocAgQIECBAgAABAgRqAlpKzckrAgQIECBAgAABAgS6BLSULmlzCBAgQIAAAQIECBCoCWgpNSevCBAgQIAAAQIECBDoEtBSuqTNIUCAAAECBAgQIECgJqCl1Jy8IkCAAAECBAgQIECgS0BL6ZI2hwABAgQIECBAgACBmoCWUnPyigABAgQIECBAgACBLgEtpUvaHAIECBAgQIAAAQIEagJaSs3JKwIECBAgQIAAAQIEugS0lC5pcwgQIECAAAECBAgQqAloKTUnrwgQIECAAAECBAgQ6BLQUrqkzSFAgAABAgQIECBAoCagpdScvCJAgAABAgQIECBAoEtAS+mSNocAAQIECBAgQIAAgZqAllJz8ooAAQIECBAgQIAAgS4BLaVL2hwCBAgQIECAAAECBGoCWkrNySsCBAgQIECAAAECBLoEtJQuaXMIECBAgAABAgQIEKgJaCk1J68IECBAgAABAgQIEOgS0FK6pM0hQIAAAQIECBAgQKAmoKXUnLwiQIAAAQIECBAgQKBLQEvpkjaHAAECBAgQIECAAIGagJZSc/KKAAECBAgQIECAAIEuAS2lS9ocAgQIECBAgAABAgRqAlpKzckrAgQIECBAgAABAgS6BLSULmlzCBAgQIAAAQIECBCoCWgpNSevCBAgQIAAAQIECBDoEtBSuqTNIUCAAAECBAgQIECgJqCl1Jy8IkCAAAECBAgQIECgS0BL6ZI2hwABAgQIECBAgACBmoCWUnPyigABAgQIECBAgACBLgEtpUvaHAIECBAgQIAAAQIEagJaSs3JKwIECBAgQIAAAQIEugS0lC5pcwgQIECAAAECBAgQqAloKTUnrwgQIECAAAECBAgQ6BLQUrqkzSFAgAABAgQIECBAoCagpdScvCJAgAABAgQIECBAoEtAS+mSNocAAQIECBAgQIAAgZqAllJz8ooAAQIECBAgQIAAgS4BLaVL2hwCBAgQIECAAAECBGoCWkrNySsCBAgQIECAAAECBLoEtJQuaXMIECBAgAABAgQIEKgJaCk1J68IECBAgAABAgQIEOgS0FK6pM0hQIAAAQIECBAgQKAmoKXUnLwiQIAAAQIECBAgQKBLQEvpkjaHAAECBAgQIECAAIGagJZSc/KKAAECBAgQIECAAIEuAS2lS9ocAgQIECBAgAABAgRqAlpKzckrAgQIECBAgAABAgS6BLSULmlzCBAgQIAAAQIECBCoCWgpNSevCBAgQIAAAQIECBDoEtBSuqTNIUCAAAECBAgQIECgJqCl1Jy8IkCAAAECBAgQIECgS0BL6ZI2hwABAgQIECBAgACBmoCWUnPyigABAgQIECBAgACBLgEtpUvaHAIECBAgQIAAAQIEagJaSs3JKwIECBAgQIAAAQIEugS0lC5pcwgQIECAAAECBAgQqAloKTUnrwgQIECAAAECBAgQ6BLQUrqkzSFAgAABAgQIECBAoCagpdScvCJAgAABAgQIECBAoEtAS+mSNocAAQIECBAgQIAAgZqAllJz8ooAAQIECBAgQIAAgS4BLaVL2hwCBAgQIECAAAECBGoCF2vPvCJAgACBJ03g2ZufvHT91u2nLv3qhSv3Lx49aee5hwABAgQ2C2gpm9OzOwECBL6AwNff+flf/fs7H71w9Ydff+ODLz33yxeu6ipfgNMvJUCAAIHzFNBSzlPTzyJAgMCjFji+d//iyem5TDn7OR9ffepPPvjV2+9f++mbr/zwz37TVV589v6Rvxj4XID9EAIECBB4eAEt5eHt/EoCBAg0C1y5/elb71974cbt85r70YtXz37axfsnb7937eyPs67yj3/z5794+bnTw4PzGuHnECBAgACBhxDQUh4CzS8hQIDA4xF49Rc3vv39d1/55cfnOP7BwYWzTnJ4+uDsZ54VlR/94sbZb1O5e+g/Hc7R2I8iQIAAgT9awH8O/dFkfgEBAgQel8CtK5d//NXX33vj5fNa4Llf3z7rPJfunRyentx47plrLz179s+nh/6Kr/MC9nMIECBA4CEFtJSHhPPLCBAg0C/w4SvPn/1xXnPfev+jK7fvPP/xJ7eeuXzWT955+9Uf/emX71w+Pq+f7+cQIECAAIGHFtBSHprOLyRAgMBugW/+6L3XP7zx/pdf/M+39JPdUdqeAAECT56AlvLkZeoiAgQIlAT+4xtfeeft195946U7T10q/QKPCBAgQIBAl4CW0iVtDgECBHoFLl+69NILz53N/Oj6jbt37/3+8PfeeOn3/0X/CgECBAgQmCDgt0hOSMEOBAgQOH+BZ688851vf/Ov//Jbz1+9ev4/3U8kQIAAAQKPUkBLeZS6fjYBAgQen8Cdu3d/fevW2T8/ePDZ32XYPwgQIECAwCIBf8XXorCsSoAAgd8VOHjqzoWTowf3PudvzHXz1u1//d4PLh1f/Pj2uf2vQP7ueP83AQIECBB4NAJayqNx9VMJECDwiAWOnr9+8IPRzDQAACAASURBVMyt4zffvfffb95//83PnXZTP/lcF/8iAQIECIwX0FLGR2RBAgQI/H+Bz/rJlVuXv/H9i2+8f/H1/7n9z989+fC1z/3TKeQIECBAgMBSAS1laXDWJkAgUeA3/eTm5W/84Df95OeHl+/c//C1s7/i6/D56w8+vXwuIqe3r5z9wHP5UX4IAQIECBB4aAEt5aHp/EICBAh0Cxy99sFT3/re8Vd/cvTC9bPZpzevnnz87NHL155++dp5rXL7n757+utz+5+3P6+t/BwCBAgQSBPQUtISdy8BArsFjl794LcV5bMzLp4cf+Vn53vPnX/7jpZyvqR+GgECBAg8hICW8hBofgkBAgQej8Dp9Rfu/vjrFw5OL75y7eDS3bM/l3LvZ2+dfPSlc/xNKac3n308t5lKgAABAgT+j4CW4nMgQIDAGoGz34Vy+i9/e/Z39Dr+2o+P3/rp4dOfHD5959Ofv37vv752jkVlDYdFCRAgQODJFdBSntxsXUaAwJMocPa72z/9wV/ce/ft46/89PhrP7n46geHV29eODx9Em91EwECBAjkCmgpudm7nACBvQKnt37bVd46eumjk+svntff4GsviM0JECBA4AkT0FKesECdQ4BAkMDpratnfwQd7FQCBAgQiBE4jLnUoQQIECBAgAABAgQI7BDQUnbkZEsCBAgQIECAAAECOQJaSk7WLiVAgAABAgQIECCwQ0BL2ZGTLQkQIECAAAECBAjkCGgpOVm7lAABAgQIECBAgMAOAS1lR062JECAAAECBAgQIJAjoKXkZO1SAgQIECBAgAABAjsEtJQdOdmSAAECBAgQIECAQI6AlpKTtUsJECBAgAABAgQI7BDQUnbkZEsCBAgQIECAAAECOQJaSk7WLiVAgAABAgQIECCwQ0BL2ZGTLQkQIECAAAECBAjkCGgpOVm7lAABAgQIECBAgMAOAS1lR062JECAAAECBAgQIJAjoKXkZO1SAgQIECBAgAABAjsEtJQdOdmSAAECBAgQIECAQI6AlpKTtUsJECBAgAABAgQI7BDQUnbkZEsCBAgQIECAAAECOQJaSk7WLiVAgAABAgQIECCwQ0BL2ZGTLQkQIECAAAECBAjkCGgpOVm7lAABAgQIECBAgMAOAS1lR062JECAAAECBAgQIJAjoKXkZO1SAgQIECBAgAABAjsEtJQdOdmSAAECBAgQIECAQI6AlpKTtUsJECBAgAABAgQI7BDQUnbkZEsCBAgQIECAAAECOQJaSk7WLiVAgAABAgQIECCwQ0BL2ZGTLQkQIECAAAECBAjkCGgpOVm7lAABAgQIECBAgMAOAS1lR062JECAAAECBAgQIJAjoKXkZO1SAgQIECBAgAABAjsEtJQdOdmSAAECBAgQIECAQI6AlpKTtUsJECBAgAABAgQI7BDQUnbkZEsCBAgQIECAAAECOQJaSk7WLiVAgAABAgQIECCwQ0BL2ZGTLQkQIECAAAECBAjkCGgpOVm7lAABAgQIECBAgMAOAS1lR062JECAAAECBAgQIJAjoKXkZO1SAgQIECBAgAABAjsEtJQdOdmSAAECBAgQIECAQI6AlpKTtUsJECBAgAABAgQI7BDQUnbkZEsCBAgQIECAAAECOQJaSk7WLiVAgAABAgQIECCwQ0BL2ZGTLQkQIECAAAECBAjkCGgpOVm7lAABAgQIECBAgMAOAS1lR062JECAAAECBAgQIJAjoKXkZO1SAgQIECBAgAABAjsEtJQdOdmSAAECBAgQIECAQI6AlpKTtUsJECBAgAABAgQI7BDQUnbkZEsCBAgQIECAAAECOQJaSk7WLiVAgAABAgQIECCwQ0BL2ZGTLQkQIECAAAECBAjkCGgpOVm7lAABAgQIECBAgMAOAS1lR062JECAAAECBAgQIJAjoKXkZO1SAgQIECBAgAABAjsEtJQdOdmSAAECBAgQIECAQI6AlpKTtUsJECBAgAABAgQI7BDQUnbkZEsCBAgQIECAAAECOQJaSk7WLiVAgAABAgQIECCwQ0BL2ZGTLQkQIECAAAECBAjkCGgpOVm7lAABAgQIECBAgMAOAS1lR062JECAAAECBAgQIJAjoKXkZO1SAgQIECBAgAABAjsEtJQdOdmSAAECBAgQIECAQI6AlpKTtUsJECBAgAABAgQI7BDQUnbkZEsCBAgQIECAAAECOQJaSk7WLiVAgAABAgQIECCwQ0BL2ZGTLQkQIECAAAECBAjkCGgpOVm7lAABAgQIECBAgMAOAS1lR062JECAAAECBAgQIJAjoKXkZO1SAgQIECBAgAABAjsEtJQdOdmSAAECBAgQIECAQI6AlpKTtUsJECBAgAABAgQI7BDQUnbkZEsCBAgQIECAAAECOQJaSk7WLiVAgAABAgQIECCwQ0BL2ZGTLQkQIECAAAECBAjkCGgpOVm7lAABAgQIECBAgMAOAS1lR062JECAAAECBAgQIJAjoKXkZO1SAgQIECBAgAABAjsEtJQdOdmSAAECBAgQIECAQI6AlpKTtUsJECBAgAABAgQI7BDQUnbkZEsCBAgQIECAAAECOQJaSk7WLiVAgAABAgQIECCwQ0BL2ZGTLQkQIECAAAECBAjkCGgpOVm7lAABAgQIECBAgMAOAS1lR062JECAAAECBAgQIJAjoKXkZO1SAgQIECBAgAABAjsEtJQdOdmSAAECBAgQIECAQI6AlpKTtUsJECBAgAABAgQI7BDQUnbkZEsCBAgQIECAAAECOQJaSk7WLiVAgAABAgQIECCwQ0BL2ZGTLQkQIECAAAECBAjkCGgpOVm7lAABAgQIECBAgMAOAS1lR062JECAAAECBAgQIJAjoKXkZO1SAgQIECBAgAABAjsEtJQdOdmSAAECBAgQIECAQI6AlpKTtUsJECBAgAABAgQI7BDQUnbkZEsCBAgQIECAAAECOQJaSk7WLiVAgAABAgQIECCwQ0BL2ZGTLQkQIECAAAECBAjkCGgpOVm7lAABAgQIECBAgMAOAS1lR062JECAAAECBAgQIJAjoKXkZO1SAgQIECBAgAABAjsEtJQdOdmSAAECBAgQIECAQI6AlpKTtUsJECBAgAABAgQI7BDQUnbkZEsCBAgQIECAAAECOQJaSk7WLiVAgAABAgQIECCwQ0BL2ZGTLQkQIECAAAECBAjkCGgpOVm7lAABAgQIECBAgMAOAS1lR062JECAAAECBAgQIJAjoKXkZO1SAgQIECBAgAABAjsEtJQdOdmSAAECBAgQIECAQI6AlpKTtUsJECBAgAABAgQI7BDQUnbkZEsCBAgQIECAAAECOQJaSk7WLiVAgAABAgQIECCwQ0BL2ZGTLQkQIECAAAECBAjkCGgpOVm7lAABAgQIECBAgMAOAS1lR062JECAAAECBAgQIJAjoKXkZO1SAgQIECBAgAABAjsEtJQdOdmSAAECBAgQIECAQI6AlpKTtUsJECBAgAABAgQI7BDQUnbkZEsCBAgQIECAAAECOQJaSk7WLiVAgAABAgQIECCwQ0BL2ZGTLQkQIECAAAECBAjkCGgpOVm7lAABAgQIECBAgMAOAS1lR062JECAAAECBAgQIJAjoKXkZO1SAgQIECBAgAABAjsEtJQdOdmSAAECBAgQIECAQI6AlpKTtUsJECBAgAABAgQI7BDQUnbkZEsCBAgQIECAAAECOQJaSk7WLiVAgAABAgQIECCwQ0BL2ZGTLQkQIECAAAECBAjkCGgpOVm7lAABAgQIECBAgMAOAS1lR062JECAAAECBAgQIJAjoKXkZO1SAgQIECBAgAABAjsEtJQdOdmSAAECBAgQIECAQI6AlpKTtUsJECBAgAABAgQI7BDQUnbkZEsCBAgQIECAAAECOQJaSk7WLiVAgAABAgQIECCwQ0BL2ZGTLQkQIECAAAECBAjkCGgpOVm7lAABAgQIECBAgMAOAS1lR062JECAAAECBAgQIJAjoKXkZO1SAgQIECBAgAABAjsEtJQdOdmSAAECBAgQIECAQI6AlpKTtUsJECBAgAABAgQI7BDQUnbkZEsCBAgQIECAAAECOQJaSk7WLiVAgAABAgQIECCwQ0BL2ZGTLQkQIECAAAECBAjkCGgpOVm7lAABAgQIECBAgMAOAS1lR062JECAAAECBAgQIJAjoKXkZO1SAgQIECBAgAABAjsEtJQdOdmSAAECBAgQIECAQI6AlpKTtUsJECBAgAABAgQI7BDQUnbkZEsCBAgQIECAAAECOQJaSk7WLiVAgAABAgQIECCwQ0BL2ZGTLQkQIECAAAECBAjkCGgpOVm7lAABAgQIECBAgMAOAS1lR062JECAAAECBAgQIJAjoKXkZO1SAgQIECBAgAABAjsEtJQdOdmSAAECBAgQIECAQI6AlpKTtUsJECBAgAABAgQI7BDQUnbkZEsCBAgQIECAAAECOQJaSk7WLiVAgAABAgQIECCwQ0BL2ZGTLQkQIECAAAECBAjkCGgpOVm7lAABAgQIECBAgMAOAS1lR062JECAAAECBAgQIJAjoKXkZO1SAgQIECBAgAABAjsEtJQdOdmSAAECBAgQIECAQI6AlpKTtUsJECBAgAABAgQI7BDQUnbkZEsCBAgQIECAAAECOQJaSk7WLiVAgAABAgQIECCwQ0BL2ZGTLQkQIECAAAECBAjkCGgpOVm7lAABAgQIECBAgMAOAS1lR062JECAAAECBAgQIJAjoKXkZO1SAgQIECBAgAABAjsEtJQdOdmSAAECBAgQIECAQI6AlpKTtUsJECBAgAABAgQI7BDQUnbkZEsCBAgQIECAAAECOQJaSk7WLiVAgAABAgQIECCwQ0BL2ZGTLQkQIECAAAECBAjkCGgpOVm7lAABAgQIECBAgMAOAS1lR062JECAAAECBAgQIJAjoKXkZO1SAgQIECBAgAABAjsEtJQdOdmSAAECBAgQIECAQI6AlpKTtUsJECBAgAABAgQI7BDQUnbkZEsCBAgQIECAAAECOQJaSk7WLiVAgAABAgQIECCwQ0BL2ZGTLQkQIECAAAECBAjkCGgpOVm7lAABAgQIECBAgMAOAS1lR062JECAAAECBAgQIJAjoKXkZO1SAgQIECBAgAABAjsEtJQdOdmSAAECBAgQIECAQI6AlpKTtUsJECBAgAABAgQI7BDQUnbkZEsCBAgQIECAAAECOQJaSk7WLiVAgAABAgQIECCwQ0BL2ZGTLQkQIECAAAECBAjkCGgpOVm7lAABAgQIECBAgMAOAS1lR062JECAAAECBAgQIJAjoKXkZO1SAgQIECBAgAABAjsEtJQdOdmSAAECBAgQIECAQI6AlpKTtUsJECBAgAABAgQI7BDQUnbkZEsCBAgQIECAAAECOQJaSk7WLiVAgAABAgQIECCwQ0BL2ZGTLQkQIECAAAECBAjkCGgpOVm7lAABAgQIECBAgMAOAS1lR062JECAAAECBAgQIJAjoKXkZO1SAgQIECBAgAABAjsEtJQdOdmSAAECBAgQIECAQI6AlpKTtUsJECBAgAABAgQI7BDQUnbkZEsCBAgQIECAAAECOQJaSk7WLiVAgAABAgQIECCwQ0BL2ZGTLQkQIECAAAECBAjkCGgpOVm7lAABAgQIECBAgMAOAS1lR062JECAAAECBAgQIJAjoKXkZO1SAgQIECBAgAABAjsEtJQdOdmSAAECBAgQIECAQI6AlpKTtUsJECBAgAABAgQI7BDQUnbkZEsCBAgQIECAAAECOQJaSk7WLiVAgAABAgQIECCwQ0BL2ZGTLQkQIECAAAECBAjkCGgpOVm7lAABAgQIECBAgMAOAS1lR062JECAAAECBAgQIJAjoKXkZO1SAgQIECBAgAABAjsEtJQdOdmSAAECBAgQIECAQI6AlpKTtUsJECBAgAABAgQI7BDQUnbkZEsCBAgQIECAAAECOQJaSk7WLiVAgAABAgQIECCwQ0BL2ZGTLQkQIECAAAECBAjkCGgpOVm7lAABAgQIECBAgMAOAS1lR062JECAAAECBAgQIJAjoKXkZO1SAgQIECBAgAABAjsEtJQdOdmSAAECBAgQIECAQI6AlpKTtUsJECBAgAABAgQI7BDQUnbkZEsCBAgQIECAAAECOQJaSk7WLiVAgAABAgQIECCwQ0BL2ZGTLQkQIECAAAECBAjkCGgpOVm7lAABAgQIECBAgMAOAS1lR062JECAAAECBAgQIJAjoKXkZO1SAgQIECBAgAABAjsEtJQdOdmSAAECBAgQIECAQI6AlpKTtUsJECBAgAABAgQI7BDQUnbkZEsCBAgQIECAAAECOQJaSk7WLiVAgAABAgQIECCwQ0BL2ZGTLQkQIECAAAECBAjkCGgpOVm7lAABAgQIECBAgMAOAS1lR062JECAAAECBAgQIJAjoKXkZO1SAgQIECBAgAABAjsEtJQdOdmSAAECBAgQIECAQI6AlpKTtUsJECBAgAABAgQI7BDQUnbkZEsCBAgQIECAAAECOQJaSk7WLiVAgAABAgQIECCwQ0BL2ZGTLQkQIECAAAECBAjkCGgpOVm7lAABAgQIECBAgMAOAS1lR062JECAAAECBAgQIJAjoKXkZO1SAgQIECBAgAABAjsEtJQdOdmSAAECBAgQIECAQI6AlpKTtUsJECBAgAABAgQI7BDQUnbkZEsCBAgQIECAAAECOQJaSk7WLiVAgAABAgQIECCwQ0BL2ZGTLQkQIECAAAECBAjkCGgpOVm7lAABAgQIECBAgMAOAS1lR062JECAAAECBAgQIJAjoKXkZO1SAgQIECBAgAABAjsEtJQdOdmSAAECBAgQIECAQI6AlpKTtUsJECBAgAABAgQI7BDQUnbkZEsCBAgQIECAAAECOQJaSk7WLiVAgAABAgQIECCwQ0BL2ZGTLQkQIECAAAECBAjkCGgpOVm7lAABAgQIECBAgMAOAS1lR062JECAAAECBAgQIJAjoKXkZO1SAgQIECBAgAABAjsEtJQdOdmSAAECBAgQIECAQI6AlpKTtUsJECBAgAABAgQI7BDQUnbkZEsCBAgQIECAAAECOQJaSk7WLiVAgAABAgQIECCwQ0BL2ZGTLQkQIECAAAECBAjkCGgpOVm7lAABAgQIECBAgMAOAS1lR062JECAAAECBAgQIJAjoKXkZO1SAgQIECBAgAABAjsEtJQdOdmSAAECBAgQIECAQI6AlpKTtUsJECBAgAABAgQI7BDQUnbkZEsCBAgQIECAAAECOQJaSk7WLiVAgAABAgQIECCwQ0BL2ZGTLQkQIECAAAECBAjkCGgpOVm7lAABAgQIECBAgMAOAS1lR062JECAAAECBAgQIJAjoKXkZO1SAgQIECBAgAABAjsEtJQdOdmSAAECBAgQIECAQI6AlpKTtUsJECBAgAABAgQI7BDQUnbkZEsCBAgQIECAAAECOQJaSk7WLiVAgAABAgQIECCwQ0BL2ZGTLQkQIECAAAECBAjkCGgpOVm7lAABAgQIECBAgMAOAS1lR062JECAAAECBAgQIJAjoKXkZO1SAgQIECBAgAABAjsEtJQdOdmSAAECBAgQIECAQI6AlpKTtUsJECBAgAABAgQI7BDQUnbkZEsCBAgQIECAAAECOQJaSk7WLiVAgAABAgQIECCwQ0BL2ZGTLQkQIECAAAECBAjkCGgpOVm7lAABAgQIECBAgMAOAS1lR062JECAAAECBAgQIJAjoKXkZO1SAgQIECBAgAABAjsEtJQdOdmSAAECBAgQIECAQI6AlpKTtUsJECBAgAABAgQI7BDQUnbkZEsCBAgQIECAAAECOQJaSk7WLiVAgAABAgQIECCwQ0BL2ZGTLQkQIECAAAECBAjkCFzMOdWlDyFwfHR05anL9+7ff4hf65cQIECAAAECX0TgqUvHBwdf5Af4tQQWC2gpi8N71KufnJ7eOTm9dHz5+eeOHvUsP58AAQIECBD4HYGjw8M7909PHzwgQyBQQEsJDL168tm/LX58597x2b9HHvpvcqpo3hEgQIAAgXMTOHlw/+69B1rKuYH6QZsEtJRNafXvelZUPr1/0j/XRAIECBAgQIAAgWQBv3s+OX23EyBAgAABAgQIEJgooKVMTMVOBAgQIECAAAECBJIFtJTk9N1OgAABAgQIECBAYKKAljIxFTsRIECAAAECBAgQSBbQUpLTdzsBAgQIECBAgACBiQJaysRU7ESAAAECBAgQIEAgWUBLSU7f7QQIECBAgAABAgQmCmgpE1OxEwECBAgQIECAAIFkAS0lOX23EyBAgAABAgQIEJgooKVMTMVOBAgQIECAAAECBJIFtJTk9N1OgAABAgQIECBAYKKAljIxFTsRIECAAAECBAgQSBbQUpLTdzsBAgQIECBAgACBiQJaysRU7ESAAAECBAgQIEAgWUBLSU7f7QQIECBAgAABAgQmCmgpE1OxEwECBAgQIECAAIFkAS0lOX23EyBAgAABAgQIEJgooKVMTMVOBAgQIECAAAECBJIFtJTk9N1OgAABAgQIECBAYKKAljIxFTsRIECAAAECBAgQSBbQUpLTdzsBAgQIECBAgACBiQJaysRU7ESAAAECBAgQIEAgWUBLSU7f7QQIECBAgAABAgQmCmgpE1OxEwECBAgQIECAAIFkAS0lOX23EyBAgAABAgQIEJgooKVMTMVOBAgQIECAAAECBJIFtJTk9N1OgAABAgQIECBAYKKAljIxFTsRIECAAAECBAgQSBbQUpLTdzsBAgQIECBAgACBiQJaysRU7ESAAAECBAgQIEAgWUBLSU7f7QQIECBAgAABAgQmCmgpE1OxEwECBAgQIECAAIFkAS0lOX23EyBAgAABAgQIEJgooKVMTMVOBAgQIECAAAECBJIFtJTk9N1OgAABAgQIECBAYKKAljIxFTsRIECAAAECBAgQSBbQUpLTdzsBAgQIECBAgACBiQJaysRU7ESAAAECBAgQIEAgWUBLSU7f7QQIECBAgAABAgQmCmgpE1OxEwECBAgQIECAAIFkAS0lOX23EyBAgAABAgQIEJgooKVMTMVOBAgQIECAAAECBJIFtJTk9N1OgAABAgQIECBAYKKAljIxFTsRIECAAAECBAgQSBbQUpLTdzsBAgQIECBAgACBiQJaysRU7ESAAAECBAgQIEAgWUBLSU7f7QQIECBAgAABAgQmCmgpE1OxEwECBAgQIECAAIFkAS0lOX23EyBAgAABAgQIEJgooKVMTMVOBAgQIECAAAECBJIFtJTk9N1OgAABAgQIECBAYKKAljIxFTsRIECAAAECBAgQSBbQUpLTdzsBAgQIECBAgACBiQJaysRU7ESAAAECBAgQIEAgWUBLSU7f7QQIECBAgAABAgQmCmgpE1OxEwECBAgQIECAAIFkAS0lOX23EyBAgAABAgQIEJgooKVMTMVOBAgQIECAAAECBJIFtJTk9N1OgAABAgQIECBAYKKAljIxFTsRIECAAAECBAgQSBbQUpLTdzsBAgQIECBAgACBiQJaysRU7ESAAAECBAgQIEAgWUBLSU7f7QQIECBAgAABAgQmCmgpE1OxEwECBAgQIECAAIFkAS0lOX23EyBAgAABAgQIEJgooKVMTMVOBAgQIECAAAECBJIFtJTk9N1OgAABAgQIECBAYKKAljIxFTsRIECAAAECBAgQSBbQUpLTdzsBAgQIECBAgACBiQJaysRU7ESAAAECBAgQIEAgWUBLSU7f7QQIECBAgAABAgQmCmgpE1OxEwECBAgQIECAAIFkAS0lOX23EyBAgAABAgQIEJgooKVMTMVOBAgQIECAAAECBJIFtJTk9N1OgAABAgQIECBAYKKAljIxFTsRIECAAAECBAgQSBbQUpLTdzsBAgQIECBAgACBiQJaysRU7ESAAAECBAgQIEAgWUBLSU7f7QQIECBAgAABAgQmCmgpE1OxEwECBAgQIECAAIFkAS0lOX23EyBAgAABAgQIEJgooKVMTMVOBAgQIECAAAECBJIFtJTk9N1OgAABAgQIECBAYKKAljIxFTsRIECAAAECBAgQSBbQUpLTdzsBAgQIECBAgACBiQJaysRU7ESAAAECBAgQIEAgWUBLSU7f7QQIECBAgAABAgQmCmgpE1OxEwECBAgQIECAAIFkAS0lOX23EyBAgAABAgQIEJgooKVMTMVOBAgQIECAAAECBJIFtJTk9N1OgAABAgQIECBAYKKAljIxFTsRIECAAAECBAgQSBbQUpLTdzsBAgQIECBAgACBiQJaysRU7ESAAAECBAgQIEAgWUBLSU7f7QQIECBAgAABAgQmCmgpE1OxEwECBAgQIECAAIFkAS0lOX23EyBAgAABAgQIEJgooKVMTMVOBAgQIECAAAECBJIFtJTk9N1OgAABAgQIECBAYKKAljIxFTsRIECAAAECBAgQSBbQUpLTdzsBAgQIECBAgACBiQJaysRU7ESAAAECBAgQIEAgWUBLSU7f7QQIECBAgAABAgQmCmgpE1OxEwECBAgQIECAAIFkAS0lOX23EyBAgAABAgQIEJgooKVMTMVOBAgQIECAAAECBJIFtJTk9N1OgAABAgQIECBAYKKAljIxFTsRIECAAAECBAgQSBbQUpLTdzsBAgQIECBAgACBiQJaysRU7ESAAAECBAgQIEAgWUBLSU7f7QQIECBAgAABAgQmCmgpE1OxEwECBAgQIECAAIFkAS0lOX23EyBAgAABAgQIEJgooKVMTMVOBAgQIECAAAECBJIFtJTk9N1OgAABAgQIECBAYKKAljIxFTsRIECAAAECBAgQSBbQUpLTdzsBAgQIECBAgACBiQJaysRU7ESAAAECBAgQIEAgWUBLSU7f7QQIECBAgAABAgQmCmgpE1OxEwECBAgQIECAAIFkF7jrKAAAAOxJREFUAS0lOX23EyBAgAABAgQIEJgooKVMTMVOBAgQIECAAAECBJIFtJTk9N1OgAABAgQIECBAYKKAljIxFTsRIECAAAECBAgQSBbQUpLTdzsBAgQIECBAgACBiQJaysRU7ESAAAECBAgQIEAgWUBLSU7f7QQIECBAgAABAgQmCmgpE1OxEwECBAgQIECAAIFkAS0lOX23EyBAgAABAgQIEJgooKVMTMVOBAgQIECAAAECBJIFtJTk9N1OgAABAgQIECBAYKKAljIxFTsRIECAAAECBAgQSBbQUpLTdzsBAgQIECBAgACBiQL/C0ZMTlpAOtq8AAAAAElFTkSuQmCC;" parent="1" vertex="1">
          <mxGeometry x="69" y="25" width="688.2" height="560" as="geometry" />
        </mxCell>
        <mxCell id="_YNgwhS-9LeHyXYjv5Vt-77" value="" style="group" parent="1" vertex="1" connectable="0">
          <mxGeometry x="120" y="156" width="40" height="20" as="geometry" />
        </mxCell>
        <mxCell id="_YNgwhS-9LeHyXYjv5Vt-7" value="" style="rounded=1;whiteSpace=wrap;html=1;rotation=0;" parent="_YNgwhS-9LeHyXYjv5Vt-77" vertex="1">
          <mxGeometry width="30" height="20" as="geometry" />
        </mxCell>
        <mxCell id="_YNgwhS-9LeHyXYjv5Vt-8" value="" style="endArrow=classic;html=1;exitX=1;exitY=0.5;exitDx=0;exitDy=0;curved=1;strokeColor=#FF0000;" parent="_YNgwhS-9LeHyXYjv5Vt-77" source="_YNgwhS-9LeHyXYjv5Vt-7" edge="1">
          <mxGeometry width="50" height="50" relative="1" as="geometry">
            <mxPoint x="30" y="30" as="sourcePoint" />
            <mxPoint x="40" y="10" as="targetPoint" />
          </mxGeometry>
        </mxCell>
        <mxCell id="_YNgwhS-9LeHyXYjv5Vt-78" value="" style="group;rotation=45;" parent="1" vertex="1" connectable="0">
          <mxGeometry x="290" y="96" width="40" height="20" as="geometry" />
        </mxCell>
        <mxCell id="_YNgwhS-9LeHyXYjv5Vt-79" value="" style="rounded=1;whiteSpace=wrap;html=1;rotation=45;" parent="_YNgwhS-9LeHyXYjv5Vt-78" vertex="1">
          <mxGeometry x="1" y="-4" width="30" height="20" as="geometry" />
        </mxCell>
        <mxCell id="_YNgwhS-9LeHyXYjv5Vt-80" value="" style="endArrow=classic;html=1;exitX=1;exitY=0.5;exitDx=0;exitDy=0;curved=1;strokeColor=#FF0000;" parent="_YNgwhS-9LeHyXYjv5Vt-78" source="_YNgwhS-9LeHyXYjv5Vt-79" edge="1">
          <mxGeometry width="50" height="50" relative="1" as="geometry">
            <mxPoint x="13" y="31" as="sourcePoint" />
            <mxPoint x="34" y="24" as="targetPoint" />
          </mxGeometry>
        </mxCell>
        <mxCell id="_YNgwhS-9LeHyXYjv5Vt-81" value="" style="group;rotation=-196;" parent="1" vertex="1" connectable="0">
          <mxGeometry x="550" y="256" width="40" height="20" as="geometry" />
        </mxCell>
        <mxCell id="_YNgwhS-9LeHyXYjv5Vt-82" value="" style="rounded=1;whiteSpace=wrap;html=1;rotation=-196;" parent="_YNgwhS-9LeHyXYjv5Vt-81" vertex="1">
          <mxGeometry x="10" y="-1" width="30" height="20" as="geometry" />
        </mxCell>
        <mxCell id="_YNgwhS-9LeHyXYjv5Vt-83" value="" style="endArrow=classic;html=1;exitX=1;exitY=0.5;exitDx=0;exitDy=0;curved=1;strokeColor=#00CC00;" parent="_YNgwhS-9LeHyXYjv5Vt-81" source="_YNgwhS-9LeHyXYjv5Vt-82" edge="1">
          <mxGeometry width="50" height="50" relative="1" as="geometry">
            <mxPoint x="5" y="-6" as="sourcePoint" />
            <mxPoint x="1" y="16" as="targetPoint" />
          </mxGeometry>
        </mxCell>
        <mxCell id="_YNgwhS-9LeHyXYjv5Vt-84" value="" style="group;rotation=-132;" parent="1" vertex="1" connectable="0">
          <mxGeometry x="590" y="456" width="40" height="20" as="geometry" />
        </mxCell>
        <mxCell id="_YNgwhS-9LeHyXYjv5Vt-85" value="" style="rounded=1;whiteSpace=wrap;html=1;rotation=-132;" parent="_YNgwhS-9LeHyXYjv5Vt-84" vertex="1">
          <mxGeometry x="8" y="4" width="30" height="20" as="geometry" />
        </mxCell>
        <mxCell id="_YNgwhS-9LeHyXYjv5Vt-86" value="" style="endArrow=classic;html=1;exitX=1;exitY=0.5;exitDx=0;exitDy=0;curved=1;strokeColor=#00CC00;" parent="_YNgwhS-9LeHyXYjv5Vt-84" source="_YNgwhS-9LeHyXYjv5Vt-85" edge="1">
          <mxGeometry width="50" height="50" relative="1" as="geometry">
            <mxPoint x="28" y="-11" as="sourcePoint" />
            <mxPoint x="7" y="-5" as="targetPoint" />
          </mxGeometry>
        </mxCell>
        <mxCell id="_YNgwhS-9LeHyXYjv5Vt-87" value="" style="group;rotation=-187;" parent="1" vertex="1" connectable="0">
          <mxGeometry x="140" y="310" width="40" height="20" as="geometry" />
        </mxCell>
        <mxCell id="_YNgwhS-9LeHyXYjv5Vt-88" value="" style="rounded=1;whiteSpace=wrap;html=1;rotation=-187;" parent="_YNgwhS-9LeHyXYjv5Vt-87" vertex="1">
          <mxGeometry x="10" y="-1" width="30" height="20" as="geometry" />
        </mxCell>
        <mxCell id="_YNgwhS-9LeHyXYjv5Vt-89" value="" style="endArrow=classic;html=1;exitX=1;exitY=0.5;exitDx=0;exitDy=0;curved=1;strokeColor=#00CC00;" parent="_YNgwhS-9LeHyXYjv5Vt-87" source="_YNgwhS-9LeHyXYjv5Vt-88" edge="1">
          <mxGeometry width="50" height="50" relative="1" as="geometry">
            <mxPoint x="8" y="-9" as="sourcePoint" />
            <mxPoint y="12" as="targetPoint" />
          </mxGeometry>
        </mxCell>
        <mxCell id="_YNgwhS-9LeHyXYjv5Vt-90" value="" style="group;rotation=-135;" parent="1" vertex="1" connectable="0">
          <mxGeometry x="260" y="350" width="40" height="20" as="geometry" />
        </mxCell>
        <mxCell id="_YNgwhS-9LeHyXYjv5Vt-91" value="" style="rounded=1;whiteSpace=wrap;html=1;rotation=-135;" parent="_YNgwhS-9LeHyXYjv5Vt-90" vertex="1">
          <mxGeometry x="9" y="4" width="30" height="20" as="geometry" />
        </mxCell>
        <mxCell id="_YNgwhS-9LeHyXYjv5Vt-92" value="" style="endArrow=classic;html=1;exitX=1;exitY=0.5;exitDx=0;exitDy=0;curved=1;strokeColor=#00CC00;" parent="_YNgwhS-9LeHyXYjv5Vt-90" source="_YNgwhS-9LeHyXYjv5Vt-91" edge="1">
          <mxGeometry width="50" height="50" relative="1" as="geometry">
            <mxPoint x="27" y="-11" as="sourcePoint" />
            <mxPoint x="6" y="-5" as="targetPoint" />
          </mxGeometry>
        </mxCell>
        <mxCell id="_YNgwhS-9LeHyXYjv5Vt-93" value="" style="group" parent="1" vertex="1" connectable="0">
          <mxGeometry x="450" y="370" width="40" height="20" as="geometry" />
        </mxCell>
        <mxCell id="_YNgwhS-9LeHyXYjv5Vt-94" value="" style="rounded=1;whiteSpace=wrap;html=1;rotation=0;" parent="_YNgwhS-9LeHyXYjv5Vt-93" vertex="1">
          <mxGeometry width="30" height="20" as="geometry" />
        </mxCell>
        <mxCell id="_YNgwhS-9LeHyXYjv5Vt-95" value="" style="endArrow=classic;html=1;exitX=1;exitY=0.5;exitDx=0;exitDy=0;curved=1;strokeColor=#FF0000;" parent="_YNgwhS-9LeHyXYjv5Vt-93" source="_YNgwhS-9LeHyXYjv5Vt-94" edge="1">
          <mxGeometry width="50" height="50" relative="1" as="geometry">
            <mxPoint x="30" y="30" as="sourcePoint" />
            <mxPoint x="40" y="10" as="targetPoint" />
          </mxGeometry>
        </mxCell>
        <mxCell id="_YNgwhS-9LeHyXYjv5Vt-96" value="" style="group;rotation=-19;" parent="1" vertex="1" connectable="0">
          <mxGeometry x="560" y="116" width="40" height="20" as="geometry" />
        </mxCell>
        <mxCell id="_YNgwhS-9LeHyXYjv5Vt-97" value="" style="rounded=1;whiteSpace=wrap;html=1;rotation=-19;" parent="_YNgwhS-9LeHyXYjv5Vt-96" vertex="1">
          <mxGeometry y="2" width="30" height="20" as="geometry" />
        </mxCell>
        <mxCell id="_YNgwhS-9LeHyXYjv5Vt-98" value="" style="endArrow=classic;html=1;exitX=1;exitY=0.5;exitDx=0;exitDy=0;curved=1;strokeColor=#FF0000;" parent="_YNgwhS-9LeHyXYjv5Vt-96" source="_YNgwhS-9LeHyXYjv5Vt-97" edge="1">
          <mxGeometry width="50" height="50" relative="1" as="geometry">
            <mxPoint x="36" y="26" as="sourcePoint" />
            <mxPoint x="39" y="3" as="targetPoint" />
          </mxGeometry>
        </mxCell>
        <mxCell id="_YNgwhS-9LeHyXYjv5Vt-99" value="" style="group;" parent="1" vertex="1" connectable="0">
          <mxGeometry x="630" y="226" width="40" height="20" as="geometry" />
        </mxCell>
        <mxCell id="_YNgwhS-9LeHyXYjv5Vt-100" value="" style="rounded=1;whiteSpace=wrap;html=1;rotation=0;" parent="_YNgwhS-9LeHyXYjv5Vt-99" vertex="1">
          <mxGeometry width="30" height="20" as="geometry" />
        </mxCell>
        <mxCell id="_YNgwhS-9LeHyXYjv5Vt-101" value="" style="endArrow=classic;html=1;exitX=1;exitY=0.5;exitDx=0;exitDy=0;curved=1;strokeColor=#FF0000;" parent="_YNgwhS-9LeHyXYjv5Vt-99" source="_YNgwhS-9LeHyXYjv5Vt-100" edge="1">
          <mxGeometry width="50" height="50" relative="1" as="geometry">
            <mxPoint x="30" y="30" as="sourcePoint" />
            <mxPoint x="40" y="10" as="targetPoint" />
          </mxGeometry>
        </mxCell>
        <mxCell id="_YNgwhS-9LeHyXYjv5Vt-102" value="" style="group;rotation=-48;" parent="1" vertex="1" connectable="0">
          <mxGeometry x="210" y="446" width="40" height="20" as="geometry" />
        </mxCell>
        <mxCell id="_YNgwhS-9LeHyXYjv5Vt-103" value="" style="rounded=1;whiteSpace=wrap;html=1;rotation=-48;" parent="_YNgwhS-9LeHyXYjv5Vt-102" vertex="1">
          <mxGeometry x="2" y="4" width="30" height="20" as="geometry" />
        </mxCell>
        <mxCell id="_YNgwhS-9LeHyXYjv5Vt-104" value="" style="endArrow=classic;html=1;exitX=1;exitY=0.5;exitDx=0;exitDy=0;curved=1;strokeColor=#FF0000;" parent="_YNgwhS-9LeHyXYjv5Vt-102" source="_YNgwhS-9LeHyXYjv5Vt-103" edge="1">
          <mxGeometry width="50" height="50" relative="1" as="geometry">
            <mxPoint x="42" y="16" as="sourcePoint" />
            <mxPoint x="33" y="-5" as="targetPoint" />
          </mxGeometry>
        </mxCell>
        <mxCell id="_YNgwhS-9LeHyXYjv5Vt-105" value="" style="group;rotation=-124;" parent="1" vertex="1" connectable="0">
          <mxGeometry x="340" y="466" width="40" height="20" as="geometry" />
        </mxCell>
        <mxCell id="_YNgwhS-9LeHyXYjv5Vt-106" value="" style="rounded=1;whiteSpace=wrap;html=1;rotation=-124;" parent="_YNgwhS-9LeHyXYjv5Vt-105" vertex="1">
          <mxGeometry x="8" y="4" width="30" height="20" as="geometry" />
        </mxCell>
        <mxCell id="_YNgwhS-9LeHyXYjv5Vt-107" value="" style="endArrow=classic;html=1;exitX=1;exitY=0.5;exitDx=0;exitDy=0;curved=1;strokeColor=#00CC00;" parent="_YNgwhS-9LeHyXYjv5Vt-105" source="_YNgwhS-9LeHyXYjv5Vt-106" edge="1">
          <mxGeometry width="50" height="50" relative="1" as="geometry">
            <mxPoint x="31" y="-9" as="sourcePoint" />
            <mxPoint x="9" y="-7" as="targetPoint" />
          </mxGeometry>
        </mxCell>
        <mxCell id="_YNgwhS-9LeHyXYjv5Vt-108" value="" style="group;rotation=55;" parent="1" vertex="1" connectable="0">
          <mxGeometry x="420" y="156" width="40" height="20" as="geometry" />
        </mxCell>
        <mxCell id="_YNgwhS-9LeHyXYjv5Vt-109" value="" style="rounded=1;whiteSpace=wrap;html=1;rotation=55;" parent="_YNgwhS-9LeHyXYjv5Vt-108" vertex="1">
          <mxGeometry x="2" y="-4" width="30" height="20" as="geometry" />
        </mxCell>
        <mxCell id="_YNgwhS-9LeHyXYjv5Vt-110" value="" style="endArrow=classic;html=1;exitX=1;exitY=0.5;exitDx=0;exitDy=0;curved=1;strokeColor=#FF0000;" parent="_YNgwhS-9LeHyXYjv5Vt-108" source="_YNgwhS-9LeHyXYjv5Vt-109" edge="1">
          <mxGeometry width="50" height="50" relative="1" as="geometry">
            <mxPoint x="9" y="30" as="sourcePoint" />
            <mxPoint x="31" y="26" as="targetPoint" />
          </mxGeometry>
        </mxCell>
        <mxCell id="_YNgwhS-9LeHyXYjv5Vt-111" value="" style="group;rotation=-15;" parent="1" vertex="1" connectable="0">
          <mxGeometry x="230" y="186" width="40" height="20" as="geometry" />
        </mxCell>
        <mxCell id="_YNgwhS-9LeHyXYjv5Vt-112" value="" style="rounded=1;whiteSpace=wrap;html=1;rotation=-15;" parent="_YNgwhS-9LeHyXYjv5Vt-111" vertex="1">
          <mxGeometry y="1" width="30" height="20" as="geometry" />
        </mxCell>
        <mxCell id="_YNgwhS-9LeHyXYjv5Vt-113" value="" style="endArrow=classic;html=1;exitX=1;exitY=0.5;exitDx=0;exitDy=0;curved=1;strokeColor=#FF0000;" parent="_YNgwhS-9LeHyXYjv5Vt-111" source="_YNgwhS-9LeHyXYjv5Vt-112" edge="1">
          <mxGeometry width="50" height="50" relative="1" as="geometry">
            <mxPoint x="35" y="27" as="sourcePoint" />
            <mxPoint x="39" y="5" as="targetPoint" />
          </mxGeometry>
        </mxCell>
        <mxCell id="_YNgwhS-9LeHyXYjv5Vt-123" value="" style="group;rotation=-19;" parent="1" vertex="1" connectable="0">
          <mxGeometry x="560" y="376" width="40" height="20" as="geometry" />
        </mxCell>
        <mxCell id="_YNgwhS-9LeHyXYjv5Vt-124" value="" style="rounded=1;whiteSpace=wrap;html=1;rotation=-19;" parent="_YNgwhS-9LeHyXYjv5Vt-123" vertex="1">
          <mxGeometry y="2" width="30" height="20" as="geometry" />
        </mxCell>
        <mxCell id="_YNgwhS-9LeHyXYjv5Vt-125" value="" style="endArrow=classic;html=1;exitX=1;exitY=0.5;exitDx=0;exitDy=0;curved=1;strokeColor=#FF0000;" parent="_YNgwhS-9LeHyXYjv5Vt-123" source="_YNgwhS-9LeHyXYjv5Vt-124" edge="1">
          <mxGeometry width="50" height="50" relative="1" as="geometry">
            <mxPoint x="36" y="26" as="sourcePoint" />
            <mxPoint x="39" y="3" as="targetPoint" />
          </mxGeometry>
        </mxCell>
        <mxCell id="_YNgwhS-9LeHyXYjv5Vt-126" value="" style="group;rotation=-196;" parent="1" vertex="1" connectable="0">
          <mxGeometry x="300" y="196" width="40" height="20" as="geometry" />
        </mxCell>
        <mxCell id="_YNgwhS-9LeHyXYjv5Vt-127" value="" style="rounded=1;whiteSpace=wrap;html=1;rotation=-196;" parent="_YNgwhS-9LeHyXYjv5Vt-126" vertex="1">
          <mxGeometry x="10" y="-1" width="30" height="20" as="geometry" />
        </mxCell>
        <mxCell id="_YNgwhS-9LeHyXYjv5Vt-128" value="" style="endArrow=classic;html=1;exitX=1;exitY=0.5;exitDx=0;exitDy=0;curved=1;strokeColor=#00CC00;" parent="_YNgwhS-9LeHyXYjv5Vt-126" source="_YNgwhS-9LeHyXYjv5Vt-127" edge="1">
          <mxGeometry width="50" height="50" relative="1" as="geometry">
            <mxPoint x="5" y="-6" as="sourcePoint" />
            <mxPoint x="1" y="16" as="targetPoint" />
          </mxGeometry>
        </mxCell>
        <mxCell id="_YNgwhS-9LeHyXYjv5Vt-129" value="" style="group;rotation=-165;" parent="1" vertex="1" connectable="0">
          <mxGeometry x="474" y="246" width="40" height="20" as="geometry" />
        </mxCell>
        <mxCell id="_YNgwhS-9LeHyXYjv5Vt-130" value="" style="rounded=1;whiteSpace=wrap;html=1;rotation=-165;" parent="_YNgwhS-9LeHyXYjv5Vt-129" vertex="1">
          <mxGeometry x="10" y="2" width="30" height="20" as="geometry" />
        </mxCell>
        <mxCell id="_YNgwhS-9LeHyXYjv5Vt-131" value="" style="endArrow=classic;html=1;exitX=1;exitY=0.5;exitDx=0;exitDy=0;curved=1;strokeColor=#00CC00;" parent="_YNgwhS-9LeHyXYjv5Vt-129" source="_YNgwhS-9LeHyXYjv5Vt-130" edge="1">
          <mxGeometry width="50" height="50" relative="1" as="geometry">
            <mxPoint x="15" y="-11" as="sourcePoint" />
            <mxPoint x="1" y="5" as="targetPoint" />
          </mxGeometry>
        </mxCell>
      </root>
    </mxGraphModel>
  </diagram>
</mxfile>
